# xmcd
#
# Track frame offsets: 
#        150
#        17517
#        37064
#        80667
#        94624
#        113521
#        157550
#        185136
#        206086
#
# Disc length: 3118 seconds
#
# Revision: 0
# Processed by: cddbd v1.5.2PL0 Copyright (c) Steve Scherf et al.
# Submitted via: ExactAudioCopy v0.99pb4
#
DISCID=670c2c09
DTITLE=Stevie Ray Vaughan and Double Trouble - King's Head Inn 1980
DYEAR=1980
DGENRE=Blues
TTITLE0=Hideaway
TTITLE1=Love Me Darlin'
TTITLE2=Tin Pan Alley
TTITLE3=Lovestruck
TTITLE4=Another Day
TTITLE5=Texas Flood
TTITLE6=Witching Hour
TTITLE7=Little Wing
TTITLE8=Instrumental (Drivn' South)
EXTD=
EXTT0=
EXTT1=
EXTT2=
EXTT3=
EXTT4=
EXTT5=
EXTT6=
EXTT7=
EXTT8=
PLAYORDER=
